<svg width="19" height="18" viewBox="0 0 19 18" fill="none" stroke="currentColor" xmlns="http://www.w3.org/2000/svg">
<path d="M6.99976 16.75C7.41397 16.75 7.74976 16.4142 7.74976 16C7.74976 15.5858 7.41397 15.25 6.99976 15.25C6.58554 15.25 6.24976 15.5858 6.24976 16C6.24976 16.4142 6.58554 16.75 6.99976 16.75Z" stroke-width="2" stroke-linecap="round" stroke-linejoin="round"/>
<path d="M15.2498 16.75C15.664 16.75 15.9998 16.4142 15.9998 16C15.9998 15.5858 15.664 15.25 15.2498 15.25C14.8355 15.25 14.4998 15.5858 14.4998 16C14.4998 16.4142 14.8355 16.75 15.2498 16.75Z" stroke-width="2" stroke-linecap="round" stroke-linejoin="round"/>
<path d="M0.999756 1H3.99976L6.00976 11.0425C6.07834 11.3878 6.26619 11.698 6.54042 11.9187C6.81464 12.1395 7.15778 12.2567 7.50976 12.25H14.7998C15.1517 12.2567 15.4949 12.1395 15.7691 11.9187C16.0433 11.698 16.2312 11.3878 16.2998 11.0425L17.4998 4.75H4.74976" stroke-width="2" stroke-linecap="round" stroke-linejoin="round"/>
</svg>
