<svg width="20" height="17" viewBox="0 0 20 17" fill="currentColor" xmlns="http://www.w3.org/2000/svg">
<path d="M18.0349 1.50292C17.5707 1.02645 17.0194 0.648483 16.4128 0.390606C15.8061 0.13273 15.1558 0 14.4991 0C13.8424 0 13.1921 0.13273 12.5854 0.390606C11.9787 0.648483 11.4275 1.02645 10.9633 1.50292L9.99976 2.4913L9.03626 1.50292C8.0985 0.540937 6.82662 0.000498631 5.50043 0.000498641C4.17423 0.000498651 2.90235 0.540937 1.96459 1.50292C1.02683 2.46491 0.5 3.76964 0.5 5.1301C0.5 6.49055 1.02683 7.79528 1.96459 8.75727L2.92808 9.74565L9.99976 17L17.0714 9.74565L18.0349 8.75727C18.4994 8.28102 18.8678 7.71557 19.1192 7.0932C19.3706 6.47084 19.5 5.80377 19.5 5.1301C19.5 4.45642 19.3706 3.78935 19.1192 3.16699C18.8678 2.54463 18.4994 1.97917 18.0349 1.50292Z"/>
</svg>
