<svg width="15" height="15" viewBox="0 0 15 15" fill="currentColor" xmlns="http://www.w3.org/2000/svg">
<path d="M6.33965 8.60001C7.20944 9.48236 8.26185 10.1636 9.42298 10.5958L10.9938 9.34585C11.0404 9.31377 11.0956 9.2966 11.1522 9.2966C11.2087 9.2966 11.2639 9.31377 11.3105 9.34585L14.2272 11.225C14.3379 11.2916 14.4316 11.383 14.5009 11.492C14.5703 11.601 14.6133 11.7247 14.6266 11.8532C14.64 11.9817 14.6233 12.1115 14.5778 12.2325C14.5323 12.3534 14.4594 12.4621 14.3647 12.55L12.998 13.9C12.8023 14.0934 12.5617 14.2353 12.2978 14.3131C12.0339 14.3909 11.7548 14.4022 11.4855 14.3458C8.79891 13.791 6.32262 12.4915 4.33965 10.5958C2.40068 8.68137 1.05893 6.24537 0.47715 3.58335C0.419678 3.3182 0.431673 3.0427 0.511974 2.78354C0.592274 2.52439 0.738157 2.29038 0.935484 2.10418L2.35215 0.737513C2.43982 0.647425 2.54673 0.578336 2.66488 0.535421C2.78303 0.492505 2.90936 0.476875 3.0344 0.4897C3.15945 0.502526 3.27998 0.543474 3.38696 0.60948C3.49394 0.675486 3.5846 0.764838 3.65215 0.870847L5.59382 3.75001C5.62731 3.79522 5.64539 3.85 5.64539 3.90626C5.64539 3.96253 5.62731 4.0173 5.59382 4.06251L4.31465 5.60001C4.75864 6.7379 5.45037 7.76269 6.33965 8.60001Z"/>
</svg>
