<svg width="16" height="18" viewBox="0 0 16 18" fill="currentColor" xmlns="http://www.w3.org/2000/svg">
<path d="M4.82782 5.96675C5.02593 8.0177 6.35245 9.37223 8.23345 9.37223C10.1144 9.37223 11.4407 8.01766 11.6389 5.96675L11.9198 3.75089C12.094 1.57388 10.3175 0 8.23345 0C6.14935 0 4.37287 1.57388 4.54696 3.75089L4.82782 5.96675Z"/>
<path d="M15.5178 14.8559L15.3834 13.9999C15.2708 13.2821 14.8197 12.6625 14.1714 12.3348L11.3423 10.9042C11.2537 10.8594 11.1816 10.7919 11.1212 10.7166C10.3021 11.5825 9.3071 12.0919 8.23308 12.0919C7.15909 12.0919 6.16392 11.5825 5.34492 10.7166C5.28449 10.7919 5.21238 10.8594 5.12383 10.9042L2.29473 12.3348C1.64638 12.6625 1.19533 13.2821 1.08272 13.9999L0.948212 14.8559C0.900294 15.1615 0.96354 15.61 1.23727 15.8341C1.60324 16.1334 2.95518 18 8.23308 18C13.5109 18 14.8628 16.1334 15.2288 15.8341C15.5026 15.61 15.5658 15.1615 15.5178 14.8559Z"/>
</svg>
