<?xml version="1.0" encoding="utf-8"?><svg viewBox="0 0 40 50" xmlns="http://www.w3.org/2000/svg" xmlns:xlink="http://www.w3.org/1999/xlink"><style>:root>svg{display:none}:root>svg:target{display:block}</style><svg fill="none" stroke="currentColor" viewBox="0 0 14 26" id="arrow" xmlns="http://www.w3.org/2000/svg"><path d="m2 2 10 11L2 24" stroke-width="4" stroke-linecap="round" stroke-linejoin="round"/></svg><svg fill="none" stroke="currentColor" viewBox="0 0 19 18" id="cart" xmlns="http://www.w3.org/2000/svg"><path d="M7 16.75a.75.75 0 1 0 0-1.5.75.75 0 0 0 0 1.5ZM15.25 16.75a.75.75 0 1 0 0-1.5.75.75 0 0 0 0 1.5ZM1 1h3l2.01 10.043a1.5 1.5 0 0 0 1.5 1.207h7.29a1.5 1.5 0 0 0 1.5-1.207l1.2-6.293H4.75" stroke-width="2" stroke-linecap="round" stroke-linejoin="round"/></svg><svg fill="currentColor" viewBox="0 0 20 17" id="heart" xmlns="http://www.w3.org/2000/svg"><path d="M18.035 1.503A4.993 4.993 0 0 0 16.413.39a4.89 4.89 0 0 0-3.828 0 4.992 4.992 0 0 0-1.622 1.112L10 2.49l-.964-.988A4.937 4.937 0 0 0 5.5 0C4.174 0 2.902.54 1.965 1.503A5.198 5.198 0 0 0 .5 5.13c0 1.36.527 2.665 1.465 3.627l.963.989L10 17l7.071-7.254.964-.989a5.139 5.139 0 0 0 1.084-1.664 5.243 5.243 0 0 0 0-3.926 5.139 5.139 0 0 0-1.084-1.664Z"/></svg><svg fill="none" stroke="currentColor" viewBox="0 0 13 15" id="location" xmlns="http://www.w3.org/2000/svg"><path d="M12.125 6.25c0 4.375-5.625 8.125-5.625 8.125S.875 10.625.875 6.25a5.625 5.625 0 0 1 11.25 0z" stroke-linecap="round" stroke-linejoin="round"/><path d="M6.5 8.125a1.875 1.875 0 1 0 0-3.75 1.875 1.875 0 0 0 0 3.75z" stroke-linecap="round" stroke-linejoin="round"/></svg><svg fill="none" stroke="currentColor" viewBox="0 0 19 19" id="mail" xmlns="http://www.w3.org/2000/svg"><path d="M3.165 3.167h12.667c.87 0 1.583.712 1.583 1.583v9.5c0 .871-.712 1.584-1.583 1.584H3.165c-.87 0-1.583-.713-1.583-1.584v-9.5c0-.87.713-1.583 1.583-1.583Z" stroke-width="2" stroke-linecap="round" stroke-linejoin="round"/><path d="M17.415 4.75 9.5 10.292 1.582 4.75" stroke-width="2" stroke-linecap="round" stroke-linejoin="round"/></svg><svg fill="currentColor" viewBox="0 0 15 15" id="phone" xmlns="http://www.w3.org/2000/svg"><path d="M6.34 8.6a8.487 8.487 0 0 0 3.083 1.996l1.57-1.25a.28.28 0 0 1 .317 0l2.917 1.879a.833.833 0 0 1 .138 1.325l-1.367 1.35a1.667 1.667 0 0 1-1.512.446 14.62 14.62 0 0 1-7.146-3.75A14.079 14.079 0 0 1 .477 3.583a1.575 1.575 0 0 1 .458-1.479L2.352.738a.833.833 0 0 1 1.3.133L5.594 3.75a.263.263 0 0 1 0 .313L4.314 5.6a8.23 8.23 0 0 0 2.026 3Z"/></svg><svg fill="none" viewBox="0 0 40 50" id="play" xmlns="http://www.w3.org/2000/svg"><path d="M.999 49.5V.5l38.5 24.5-38.5 24.5Z" fill="#fff"/></svg><svg fill="currentColor" viewBox="0 0 16 18" id="profileIcon" xmlns="http://www.w3.org/2000/svg"><path d="M4.828 5.967c.198 2.05 1.524 3.405 3.405 3.405 1.881 0 3.208-1.354 3.406-3.405l.28-2.216C12.095 1.574 10.319 0 8.234 0 6.15 0 4.373 1.574 4.547 3.75l.28 2.217ZM15.518 14.856 15.383 14a2.258 2.258 0 0 0-1.212-1.665l-2.829-1.43a.683.683 0 0 1-.22-.188c-.82.865-1.815 1.375-2.889 1.375-1.074 0-2.07-.51-2.888-1.375a.684.684 0 0 1-.221.187l-2.83 1.43c-.648.329-1.099.948-1.211 1.666l-.135.856c-.048.306.016.754.29.978.365.3 1.717 2.166 6.995 2.166 5.278 0 6.63-1.867 6.996-2.166.274-.224.337-.672.289-.978Z"/></svg><svg fill="none" stroke="currentColor" viewBox="0 0 18 18" id="search" xmlns="http://www.w3.org/2000/svg"><path d="M8.25 14.25a6 6 0 1 0 0-12 6 6 0 0 0 0 12ZM15.75 15.75l-3.262-3.263" stroke-width="1.583" stroke-linecap="round" stroke-linejoin="round"/></svg></svg>